<mxfile host="Electron" modified="2023-04-29T09:12:04.612Z" agent="Mozilla/5.0 (Macintosh; Intel Mac OS X 10_15_7) AppleWebKit/537.36 (KHTML, like Gecko) draw.io/21.2.1 Chrome/112.0.5615.87 Electron/24.1.2 Safari/537.36" etag="zISaSsX9g5oWXB2la_TQ" version="21.2.1" type="device">
  <diagram name="PÃ¡gina-1" id="QffRoKn2v6kGI1axIqOQ">
    <mxGraphModel dx="2099" dy="969" grid="1" gridSize="10" guides="1" tooltips="1" connect="1" arrows="1" fold="1" page="1" pageScale="1" pageWidth="827" pageHeight="1169" math="0" shadow="0">
      <root>
        <mxCell id="0" />
        <mxCell id="1" parent="0" />
        <mxCell id="7POUdR2TWD89Ey3vMJYg-50" value="" style="shape=link;html=1;rounded=0;entryX=0;entryY=1;entryDx=0;entryDy=0;width=0;exitX=1;exitY=0.75;exitDx=0;exitDy=0;" parent="1" source="7POUdR2TWD89Ey3vMJYg-3" target="7POUdR2TWD89Ey3vMJYg-4" edge="1">
          <mxGeometry relative="1" as="geometry">
            <mxPoint x="230" y="370" as="sourcePoint" />
            <mxPoint x="390" y="370" as="targetPoint" />
          </mxGeometry>
        </mxCell>
        <mxCell id="7POUdR2TWD89Ey3vMJYg-51" value="N" style="resizable=0;html=1;whiteSpace=wrap;align=left;verticalAlign=bottom;" parent="7POUdR2TWD89Ey3vMJYg-50" connectable="0" vertex="1">
          <mxGeometry x="-1" relative="1" as="geometry">
            <mxPoint x="10" y="-10" as="offset" />
          </mxGeometry>
        </mxCell>
        <mxCell id="7POUdR2TWD89Ey3vMJYg-52" value="1" style="resizable=0;html=1;whiteSpace=wrap;align=right;verticalAlign=bottom;" parent="7POUdR2TWD89Ey3vMJYg-50" connectable="0" vertex="1">
          <mxGeometry x="1" relative="1" as="geometry">
            <mxPoint x="-10" as="offset" />
          </mxGeometry>
        </mxCell>
        <mxCell id="7POUdR2TWD89Ey3vMJYg-1" value="Doctor&amp;nbsp;" style="whiteSpace=wrap;html=1;align=center;" parent="1" vertex="1">
          <mxGeometry x="580" y="170" width="100" height="40" as="geometry" />
        </mxCell>
        <mxCell id="7POUdR2TWD89Ey3vMJYg-2" value="Patient" style="whiteSpace=wrap;html=1;align=center;" parent="1" vertex="1">
          <mxGeometry x="110" y="170" width="100" height="40" as="geometry" />
        </mxCell>
        <mxCell id="7POUdR2TWD89Ey3vMJYg-3" value="Vaccine" style="whiteSpace=wrap;html=1;align=center;" parent="1" vertex="1">
          <mxGeometry x="160" y="550" width="100" height="40" as="geometry" />
        </mxCell>
        <mxCell id="7POUdR2TWD89Ey3vMJYg-4" value="Disease&amp;nbsp;" style="whiteSpace=wrap;html=1;align=center;" parent="1" vertex="1">
          <mxGeometry x="620" y="420" width="100" height="40" as="geometry" />
        </mxCell>
        <mxCell id="7POUdR2TWD89Ey3vMJYg-5" value="Condition" style="whiteSpace=wrap;html=1;align=center;" parent="1" vertex="1">
          <mxGeometry x="-150" y="350" width="100" height="40" as="geometry" />
        </mxCell>
        <mxCell id="7POUdR2TWD89Ey3vMJYg-6" value="ID" style="ellipse;whiteSpace=wrap;html=1;align=center;fontStyle=4;" parent="1" vertex="1">
          <mxGeometry x="-30" y="140" width="100" height="40" as="geometry" />
        </mxCell>
        <mxCell id="7POUdR2TWD89Ey3vMJYg-7" value="Name" style="ellipse;whiteSpace=wrap;html=1;align=center;" parent="1" vertex="1">
          <mxGeometry x="50" y="100" width="100" height="40" as="geometry" />
        </mxCell>
        <mxCell id="7POUdR2TWD89Ey3vMJYg-8" value="Surname" style="ellipse;whiteSpace=wrap;html=1;align=center;" parent="1" vertex="1">
          <mxGeometry x="170" y="110" width="100" height="40" as="geometry" />
        </mxCell>
        <mxCell id="7POUdR2TWD89Ey3vMJYg-9" value="&lt;u&gt;Identifier&lt;/u&gt;" style="ellipse;whiteSpace=wrap;html=1;align=center;" parent="1" vertex="1">
          <mxGeometry x="727" y="360" width="100" height="40" as="geometry" />
        </mxCell>
        <mxCell id="7POUdR2TWD89Ey3vMJYg-10" value="Name" style="ellipse;whiteSpace=wrap;html=1;align=center;" parent="1" vertex="1">
          <mxGeometry x="690" y="120" width="100" height="40" as="geometry" />
        </mxCell>
        <mxCell id="7POUdR2TWD89Ey3vMJYg-11" value="ID" style="ellipse;whiteSpace=wrap;html=1;align=center;fontStyle=4;" parent="1" vertex="1">
          <mxGeometry x="560" y="110" width="100" height="40" as="geometry" />
        </mxCell>
        <mxCell id="7POUdR2TWD89Ey3vMJYg-12" value="Dose" style="ellipse;whiteSpace=wrap;html=1;align=center;" parent="1" vertex="1">
          <mxGeometry x="160" y="650" width="100" height="40" as="geometry" />
        </mxCell>
        <mxCell id="7POUdR2TWD89Ey3vMJYg-13" value="Surname" style="ellipse;whiteSpace=wrap;html=1;align=center;" parent="1" vertex="1">
          <mxGeometry x="727" y="190" width="100" height="40" as="geometry" />
        </mxCell>
        <mxCell id="7POUdR2TWD89Ey3vMJYg-14" value="Identifier" style="ellipse;whiteSpace=wrap;html=1;align=center;fontStyle=4;" parent="1" vertex="1">
          <mxGeometry x="40" y="640" width="100" height="40" as="geometry" />
        </mxCell>
        <mxCell id="7POUdR2TWD89Ey3vMJYg-21" value="" style="shape=link;html=1;rounded=0;width=0;entryX=0;entryY=0.5;entryDx=0;entryDy=0;" parent="1" source="7POUdR2TWD89Ey3vMJYg-17" target="7POUdR2TWD89Ey3vMJYg-1" edge="1">
          <mxGeometry relative="1" as="geometry">
            <mxPoint x="300" y="219.5" as="sourcePoint" />
            <mxPoint x="460" y="219.5" as="targetPoint" />
            <Array as="points">
              <mxPoint x="520" y="190" />
            </Array>
          </mxGeometry>
        </mxCell>
        <mxCell id="7POUdR2TWD89Ey3vMJYg-23" value="1" style="resizable=0;html=1;whiteSpace=wrap;align=right;verticalAlign=bottom;" parent="7POUdR2TWD89Ey3vMJYg-21" connectable="0" vertex="1">
          <mxGeometry x="1" relative="1" as="geometry" />
        </mxCell>
        <mxCell id="7POUdR2TWD89Ey3vMJYg-24" value="" style="shape=link;html=1;rounded=0;width=0;entryX=0;entryY=0.5;entryDx=0;entryDy=0;exitX=1;exitY=0.5;exitDx=0;exitDy=0;" parent="1" source="7POUdR2TWD89Ey3vMJYg-2" target="7POUdR2TWD89Ey3vMJYg-17" edge="1">
          <mxGeometry relative="1" as="geometry">
            <mxPoint x="300" y="219.5" as="sourcePoint" />
            <mxPoint x="560" y="220" as="targetPoint" />
            <Array as="points" />
          </mxGeometry>
        </mxCell>
        <mxCell id="7POUdR2TWD89Ey3vMJYg-25" value="N" style="resizable=0;html=1;whiteSpace=wrap;align=left;verticalAlign=bottom;" parent="7POUdR2TWD89Ey3vMJYg-24" connectable="0" vertex="1">
          <mxGeometry x="-1" relative="1" as="geometry">
            <mxPoint x="10" as="offset" />
          </mxGeometry>
        </mxCell>
        <mxCell id="7POUdR2TWD89Ey3vMJYg-17" value="has" style="shape=rhombus;perimeter=rhombusPerimeter;whiteSpace=wrap;html=1;align=center;" parent="1" vertex="1">
          <mxGeometry x="380" y="170" width="100" height="40" as="geometry" />
        </mxCell>
        <mxCell id="7POUdR2TWD89Ey3vMJYg-28" value="is immune" style="shape=rhombus;perimeter=rhombusPerimeter;whiteSpace=wrap;html=1;align=center;" parent="1" vertex="1">
          <mxGeometry x="410" y="360" width="90" height="40" as="geometry" />
        </mxCell>
        <mxCell id="7POUdR2TWD89Ey3vMJYg-31" value="" style="endArrow=none;html=1;rounded=0;exitX=0.25;exitY=0;exitDx=0;exitDy=0;entryX=1;entryY=1;entryDx=0;entryDy=0;" parent="1" source="7POUdR2TWD89Ey3vMJYg-2" target="7POUdR2TWD89Ey3vMJYg-7" edge="1">
          <mxGeometry relative="1" as="geometry">
            <mxPoint x="330" y="380" as="sourcePoint" />
            <mxPoint x="490" y="380" as="targetPoint" />
            <Array as="points" />
          </mxGeometry>
        </mxCell>
        <mxCell id="7POUdR2TWD89Ey3vMJYg-32" value="" style="endArrow=none;html=1;rounded=0;exitX=0.75;exitY=0;exitDx=0;exitDy=0;" parent="1" source="7POUdR2TWD89Ey3vMJYg-2" target="7POUdR2TWD89Ey3vMJYg-8" edge="1">
          <mxGeometry relative="1" as="geometry">
            <mxPoint x="260" y="210" as="sourcePoint" />
            <mxPoint x="205" y="174" as="targetPoint" />
          </mxGeometry>
        </mxCell>
        <mxCell id="7POUdR2TWD89Ey3vMJYg-33" value="" style="endArrow=none;html=1;rounded=0;exitX=0;exitY=0.5;exitDx=0;exitDy=0;entryX=1;entryY=0.5;entryDx=0;entryDy=0;" parent="1" source="7POUdR2TWD89Ey3vMJYg-2" target="7POUdR2TWD89Ey3vMJYg-6" edge="1">
          <mxGeometry relative="1" as="geometry">
            <mxPoint x="285" y="210" as="sourcePoint" />
            <mxPoint x="288" y="180" as="targetPoint" />
          </mxGeometry>
        </mxCell>
        <mxCell id="7POUdR2TWD89Ey3vMJYg-34" value="" style="endArrow=none;html=1;rounded=0;exitX=0.25;exitY=1;exitDx=0;exitDy=0;entryX=1;entryY=0.5;entryDx=0;entryDy=0;" parent="1" source="7POUdR2TWD89Ey3vMJYg-3" target="7POUdR2TWD89Ey3vMJYg-14" edge="1">
          <mxGeometry relative="1" as="geometry">
            <mxPoint x="210" y="230" as="sourcePoint" />
            <mxPoint x="180" y="220" as="targetPoint" />
          </mxGeometry>
        </mxCell>
        <mxCell id="7POUdR2TWD89Ey3vMJYg-35" value="" style="endArrow=none;html=1;rounded=0;exitX=0.75;exitY=1;exitDx=0;exitDy=0;entryX=1;entryY=0;entryDx=0;entryDy=0;" parent="1" source="7POUdR2TWD89Ey3vMJYg-3" target="7POUdR2TWD89Ey3vMJYg-12" edge="1">
          <mxGeometry relative="1" as="geometry">
            <mxPoint x="140" y="350" as="sourcePoint" />
            <mxPoint x="130" y="340" as="targetPoint" />
          </mxGeometry>
        </mxCell>
        <mxCell id="7POUdR2TWD89Ey3vMJYg-37" value="" style="endArrow=none;html=1;rounded=0;exitX=0.25;exitY=0;exitDx=0;exitDy=0;entryX=0.5;entryY=1;entryDx=0;entryDy=0;" parent="1" source="7POUdR2TWD89Ey3vMJYg-1" target="7POUdR2TWD89Ey3vMJYg-11" edge="1">
          <mxGeometry relative="1" as="geometry">
            <mxPoint x="235" y="210" as="sourcePoint" />
            <mxPoint x="205" y="174" as="targetPoint" />
          </mxGeometry>
        </mxCell>
        <mxCell id="7POUdR2TWD89Ey3vMJYg-38" value="" style="endArrow=none;html=1;rounded=0;exitX=1;exitY=0;exitDx=0;exitDy=0;entryX=0;entryY=1;entryDx=0;entryDy=0;" parent="1" source="7POUdR2TWD89Ey3vMJYg-1" target="7POUdR2TWD89Ey3vMJYg-10" edge="1">
          <mxGeometry relative="1" as="geometry">
            <mxPoint x="595" y="210" as="sourcePoint" />
            <mxPoint x="590" y="190" as="targetPoint" />
          </mxGeometry>
        </mxCell>
        <mxCell id="7POUdR2TWD89Ey3vMJYg-39" value="" style="endArrow=none;html=1;rounded=0;exitX=1;exitY=0.5;exitDx=0;exitDy=0;entryX=0;entryY=0.5;entryDx=0;entryDy=0;" parent="1" source="7POUdR2TWD89Ey3vMJYg-1" target="7POUdR2TWD89Ey3vMJYg-13" edge="1">
          <mxGeometry relative="1" as="geometry">
            <mxPoint x="670" y="210" as="sourcePoint" />
            <mxPoint x="675" y="220" as="targetPoint" />
          </mxGeometry>
        </mxCell>
        <mxCell id="7POUdR2TWD89Ey3vMJYg-40" value="" style="endArrow=none;html=1;rounded=0;exitX=1;exitY=0.25;exitDx=0;exitDy=0;entryX=0;entryY=0.5;entryDx=0;entryDy=0;" parent="1" source="7POUdR2TWD89Ey3vMJYg-4" target="7POUdR2TWD89Ey3vMJYg-9" edge="1">
          <mxGeometry relative="1" as="geometry">
            <mxPoint x="670" y="230" as="sourcePoint" />
            <mxPoint x="690" y="240" as="targetPoint" />
          </mxGeometry>
        </mxCell>
        <mxCell id="7POUdR2TWD89Ey3vMJYg-43" value="" style="endArrow=none;html=1;rounded=0;entryX=0.75;entryY=1;entryDx=0;entryDy=0;exitX=0;exitY=0;exitDx=0;exitDy=0;" parent="1" source="7POUdR2TWD89Ey3vMJYg-28" target="7POUdR2TWD89Ey3vMJYg-2" edge="1">
          <mxGeometry relative="1" as="geometry">
            <mxPoint x="330" y="380" as="sourcePoint" />
            <mxPoint x="270" y="250" as="targetPoint" />
          </mxGeometry>
        </mxCell>
        <mxCell id="7POUdR2TWD89Ey3vMJYg-45" value="" style="endArrow=none;html=1;rounded=0;entryX=0;entryY=0.5;entryDx=0;entryDy=0;exitX=1;exitY=1;exitDx=0;exitDy=0;" parent="1" source="7POUdR2TWD89Ey3vMJYg-28" target="7POUdR2TWD89Ey3vMJYg-4" edge="1">
          <mxGeometry relative="1" as="geometry">
            <mxPoint x="323" y="330" as="sourcePoint" />
            <mxPoint x="240" y="370" as="targetPoint" />
          </mxGeometry>
        </mxCell>
        <mxCell id="7POUdR2TWD89Ey3vMJYg-65" value="" style="endArrow=none;html=1;rounded=0;exitX=1;exitY=0;exitDx=0;exitDy=0;entryX=0.5;entryY=1;entryDx=0;entryDy=0;" parent="1" source="7POUdR2TWD89Ey3vMJYg-59" edge="1">
          <mxGeometry relative="1" as="geometry">
            <mxPoint x="330" y="420" as="sourcePoint" />
            <mxPoint x="302" y="395" as="targetPoint" />
          </mxGeometry>
        </mxCell>
        <mxCell id="7POUdR2TWD89Ey3vMJYg-76" value="N" style="text;strokeColor=none;fillColor=none;spacingLeft=4;spacingRight=4;overflow=hidden;rotatable=0;points=[[0,0.5],[1,0.5]];portConstraint=eastwest;fontSize=12;whiteSpace=wrap;html=1;" parent="1" vertex="1">
          <mxGeometry x="-90" y="390" width="40" height="30" as="geometry" />
        </mxCell>
        <mxCell id="7POUdR2TWD89Ey3vMJYg-81" value="" style="endArrow=none;html=1;rounded=0;exitX=0.25;exitY=1;exitDx=0;exitDy=0;" parent="1" source="7POUdR2TWD89Ey3vMJYg-59" edge="1">
          <mxGeometry relative="1" as="geometry">
            <mxPoint x="330" y="420" as="sourcePoint" />
            <mxPoint x="190" y="550" as="targetPoint" />
          </mxGeometry>
        </mxCell>
        <mxCell id="7POUdR2TWD89Ey3vMJYg-82" value="" style="endArrow=none;html=1;rounded=0;exitX=0.37;exitY=1.025;exitDx=0;exitDy=0;exitPerimeter=0;" parent="1" source="7POUdR2TWD89Ey3vMJYg-2" target="7POUdR2TWD89Ey3vMJYg-59" edge="1">
          <mxGeometry relative="1" as="geometry">
            <mxPoint x="205" y="270" as="sourcePoint" />
            <mxPoint x="225" y="540" as="targetPoint" />
          </mxGeometry>
        </mxCell>
        <mxCell id="7POUdR2TWD89Ey3vMJYg-59" value="puts" style="shape=rhombus;perimeter=rhombusPerimeter;whiteSpace=wrap;html=1;align=center;" parent="1" vertex="1">
          <mxGeometry x="160" y="395" width="80" height="50" as="geometry" />
        </mxCell>
        <mxCell id="7POUdR2TWD89Ey3vMJYg-85" value="N" style="text;strokeColor=none;fillColor=none;spacingLeft=4;spacingRight=4;overflow=hidden;rotatable=0;points=[[0,0.5],[1,0.5]];portConstraint=eastwest;fontSize=12;whiteSpace=wrap;html=1;" parent="1" vertex="1">
          <mxGeometry x="170" y="520" width="20" height="30" as="geometry" />
        </mxCell>
        <mxCell id="7POUdR2TWD89Ey3vMJYg-86" value="1" style="text;strokeColor=none;fillColor=none;spacingLeft=4;spacingRight=4;overflow=hidden;rotatable=0;points=[[0,0.5],[1,0.5]];portConstraint=eastwest;fontSize=12;whiteSpace=wrap;html=1;" parent="1" vertex="1">
          <mxGeometry x="130" y="210" width="20" height="30" as="geometry" />
        </mxCell>
        <mxCell id="7POUdR2TWD89Ey3vMJYg-89" value="&lt;u&gt;Identifier&lt;/u&gt;" style="ellipse;whiteSpace=wrap;html=1;align=center;" parent="1" vertex="1">
          <mxGeometry x="-260" y="290" width="100" height="40" as="geometry" />
        </mxCell>
        <mxCell id="7POUdR2TWD89Ey3vMJYg-90" value="" style="endArrow=none;html=1;rounded=0;exitX=1;exitY=1;exitDx=0;exitDy=0;entryX=0;entryY=0;entryDx=0;entryDy=0;" parent="1" source="7POUdR2TWD89Ey3vMJYg-89" target="7POUdR2TWD89Ey3vMJYg-5" edge="1">
          <mxGeometry relative="1" as="geometry">
            <mxPoint x="80" y="420" as="sourcePoint" />
            <mxPoint x="240" y="420" as="targetPoint" />
          </mxGeometry>
        </mxCell>
        <mxCell id="7POUdR2TWD89Ey3vMJYg-92" value="" style="endArrow=none;html=1;rounded=0;exitX=0.75;exitY=1;exitDx=0;exitDy=0;entryX=0;entryY=0;entryDx=0;entryDy=0;" parent="1" source="7POUdR2TWD89Ey3vMJYg-5" target="7POUdR2TWD89Ey3vMJYg-3" edge="1">
          <mxGeometry relative="1" as="geometry">
            <mxPoint x="-75" y="390" as="sourcePoint" />
            <mxPoint x="140" y="550" as="targetPoint" />
          </mxGeometry>
        </mxCell>
        <mxCell id="7POUdR2TWD89Ey3vMJYg-71" value="not compatible" style="shape=rhombus;perimeter=rhombusPerimeter;whiteSpace=wrap;html=1;align=center;" parent="1" vertex="1">
          <mxGeometry x="-10" y="445" width="90" height="50" as="geometry" />
        </mxCell>
        <mxCell id="7POUdR2TWD89Ey3vMJYg-93" value="N" style="text;strokeColor=none;fillColor=none;spacingLeft=4;spacingRight=4;overflow=hidden;rotatable=0;points=[[0,0.5],[1,0.5]];portConstraint=eastwest;fontSize=12;whiteSpace=wrap;html=1;" parent="1" vertex="1">
          <mxGeometry x="130" y="540" width="20" height="30" as="geometry" />
        </mxCell>
        <mxCell id="iXqkvxT83hedPS_u99TY-1" value="" style="endArrow=none;html=1;rounded=0;exitX=1;exitY=0;exitDx=0;exitDy=0;entryX=0.25;entryY=1;entryDx=0;entryDy=0;" parent="1" source="iXqkvxT83hedPS_u99TY-3" target="7POUdR2TWD89Ey3vMJYg-2" edge="1">
          <mxGeometry relative="1" as="geometry">
            <mxPoint x="210" y="460" as="sourcePoint" />
            <mxPoint x="370" y="460" as="targetPoint" />
          </mxGeometry>
        </mxCell>
        <mxCell id="iXqkvxT83hedPS_u99TY-4" value="" style="endArrow=none;html=1;rounded=0;exitX=1;exitY=0;exitDx=0;exitDy=0;entryX=0.25;entryY=1;entryDx=0;entryDy=0;" parent="1" source="7POUdR2TWD89Ey3vMJYg-5" target="iXqkvxT83hedPS_u99TY-3" edge="1">
          <mxGeometry relative="1" as="geometry">
            <mxPoint x="-50" y="370" as="sourcePoint" />
            <mxPoint x="135" y="210" as="targetPoint" />
          </mxGeometry>
        </mxCell>
        <mxCell id="iXqkvxT83hedPS_u99TY-3" value="has" style="shape=rhombus;perimeter=rhombusPerimeter;whiteSpace=wrap;html=1;align=center;" parent="1" vertex="1">
          <mxGeometry x="-25" y="260" width="120" height="60" as="geometry" />
        </mxCell>
        <mxCell id="iXqkvxT83hedPS_u99TY-5" value="N" style="text;strokeColor=none;fillColor=none;spacingLeft=4;spacingRight=4;overflow=hidden;rotatable=0;points=[[0,0.5],[1,0.5]];portConstraint=eastwest;fontSize=12;whiteSpace=wrap;html=1;" parent="1" vertex="1">
          <mxGeometry x="-60" y="325" width="20" height="30" as="geometry" />
        </mxCell>
        <mxCell id="iXqkvxT83hedPS_u99TY-6" value="N" style="text;strokeColor=none;fillColor=none;spacingLeft=4;spacingRight=4;overflow=hidden;rotatable=0;points=[[0,0.5],[1,0.5]];portConstraint=eastwest;fontSize=12;whiteSpace=wrap;html=1;" parent="1" vertex="1">
          <mxGeometry x="95" y="210" width="20" height="30" as="geometry" />
        </mxCell>
        <mxCell id="emaxM_esZ3MPcGWXdcEz-2" value="Date" style="ellipse;whiteSpace=wrap;html=1;align=center;fontStyle=4;" parent="1" vertex="1">
          <mxGeometry x="270" y="380" width="80" height="30" as="geometry" />
        </mxCell>
        <mxCell id="emaxM_esZ3MPcGWXdcEz-3" value="Attendance" style="ellipse;whiteSpace=wrap;html=1;align=center;" parent="1" vertex="1">
          <mxGeometry x="210" y="340" width="70" height="30" as="geometry" />
        </mxCell>
        <mxCell id="emaxM_esZ3MPcGWXdcEz-4" value="" style="endArrow=none;html=1;rounded=0;exitX=0.5;exitY=0;exitDx=0;exitDy=0;entryX=0;entryY=1;entryDx=0;entryDy=0;" parent="1" source="7POUdR2TWD89Ey3vMJYg-59" target="emaxM_esZ3MPcGWXdcEz-3" edge="1">
          <mxGeometry relative="1" as="geometry">
            <mxPoint x="200" y="510" as="sourcePoint" />
            <mxPoint x="360" y="510" as="targetPoint" />
          </mxGeometry>
        </mxCell>
        <mxCell id="emaxM_esZ3MPcGWXdcEz-6" value="N" style="text;strokeColor=none;fillColor=none;spacingLeft=4;spacingRight=4;overflow=hidden;rotatable=0;points=[[0,0.5],[1,0.5]];portConstraint=eastwest;fontSize=12;whiteSpace=wrap;html=1;" parent="1" vertex="1">
          <mxGeometry x="210" y="200" width="20" height="30" as="geometry" />
        </mxCell>
        <mxCell id="emaxM_esZ3MPcGWXdcEz-7" value="N" style="text;strokeColor=none;fillColor=none;spacingLeft=4;spacingRight=4;overflow=hidden;rotatable=0;points=[[0,0.5],[1,0.5]];portConstraint=eastwest;fontSize=12;whiteSpace=wrap;html=1;" parent="1" vertex="1">
          <mxGeometry x="590" y="400" width="20" height="30" as="geometry" />
        </mxCell>
        <mxCell id="Ct-xR7AoPT9zTteACkHE-1" value="Name&amp;nbsp;" style="ellipse;whiteSpace=wrap;html=1;align=center;" vertex="1" parent="1">
          <mxGeometry x="-260" y="380" width="100" height="40" as="geometry" />
        </mxCell>
        <mxCell id="Ct-xR7AoPT9zTteACkHE-2" value="" style="endArrow=none;html=1;rounded=0;exitX=0;exitY=1;exitDx=0;exitDy=0;entryX=1;entryY=0.5;entryDx=0;entryDy=0;" edge="1" parent="1" source="7POUdR2TWD89Ey3vMJYg-5" target="Ct-xR7AoPT9zTteACkHE-1">
          <mxGeometry relative="1" as="geometry">
            <mxPoint x="220" y="400" as="sourcePoint" />
            <mxPoint x="380" y="400" as="targetPoint" />
          </mxGeometry>
        </mxCell>
        <mxCell id="Ct-xR7AoPT9zTteACkHE-3" value="Name" style="ellipse;whiteSpace=wrap;html=1;align=center;" vertex="1" parent="1">
          <mxGeometry x="670" y="490" width="100" height="40" as="geometry" />
        </mxCell>
        <mxCell id="Ct-xR7AoPT9zTteACkHE-4" value="" style="endArrow=none;html=1;rounded=0;entryX=0.75;entryY=1;entryDx=0;entryDy=0;" edge="1" parent="1" source="Ct-xR7AoPT9zTteACkHE-3" target="7POUdR2TWD89Ey3vMJYg-4">
          <mxGeometry relative="1" as="geometry">
            <mxPoint x="220" y="400" as="sourcePoint" />
            <mxPoint x="380" y="400" as="targetPoint" />
          </mxGeometry>
        </mxCell>
        <mxCell id="Ct-xR7AoPT9zTteACkHE-5" value="Name" style="ellipse;whiteSpace=wrap;html=1;align=center;" vertex="1" parent="1">
          <mxGeometry x="280" y="610" width="100" height="40" as="geometry" />
        </mxCell>
        <mxCell id="Ct-xR7AoPT9zTteACkHE-6" value="" style="endArrow=none;html=1;rounded=0;exitX=1;exitY=1;exitDx=0;exitDy=0;entryX=0;entryY=0;entryDx=0;entryDy=0;" edge="1" parent="1" source="7POUdR2TWD89Ey3vMJYg-3" target="Ct-xR7AoPT9zTteACkHE-5">
          <mxGeometry relative="1" as="geometry">
            <mxPoint x="220" y="400" as="sourcePoint" />
            <mxPoint x="380" y="400" as="targetPoint" />
          </mxGeometry>
        </mxCell>
      </root>
    </mxGraphModel>
  </diagram>
</mxfile>
